<?xml version="1.0" encoding="UTF-8"?>
<svg width="128px" height="128px" viewBox="0 0 128 128" version="1.1" xmlns="http://www.w3.org/2000/svg" xmlns:xlink="http://www.w3.org/1999/xlink">
    <!-- Generator: Sketch 52.6 (67491) - http://www.bohemiancoding.com/sketch -->
    <title>分组</title>
    <desc>Created with Sketch.</desc>
    <defs>
        <linearGradient x1="50%" y1="0%" x2="50%" y2="100%" id="linearGradient-1">
            <stop stop-color="#FFFFFF" offset="0%"></stop>
            <stop stop-color="#F2F2F2" offset="100%"></stop>
        </linearGradient>
    </defs>
    <g id="Page-1" stroke="none" stroke-width="1" fill="none" fill-rule="evenodd">
        <g id="分组">
            <circle id="oval" stroke-opacity="0.90160779" stroke="#D5D0D0" stroke-width="4" fill="url(#linearGradient-1)" cx="64" cy="64" r="62"></circle>
            <path d="M59.418789,58.2324458 L59.418789,96.7692267 C59.418789,101.751266 55.3882795,105.787944 50.4168922,105.787944 C45.4455046,105.787944 41.418789,101.336953 41.418789,96.9300478 L41.418789,58.2338894 C41.418789,53.824118 45.4474017,49.3521245 50.418789,49.3745623 C55.3901764,49.3970003 59.418789,53.824118 59.418789,58.2324458 Z" id="orange" fill="#E5C329" transform="translate(50.418789, 77.581211) rotate(45.000000) translate(-50.418789, -77.581211) "></path>
            <path d="M87.0227008,30.6470802 C87.0227008,30.6470802 87.6090907,63.0101757 86.9767235,68.6599051 C86.3443564,74.3096345 83.0476132,77.5486615 78.1445854,77.5486615 C73.2415575,77.5486615 69.2702117,73.1588744 69.2702117,68.8125669 L69.2702117,30.6485041 C69.2702117,26.2993696 73.2434285,21.8888687 78.1464562,21.9109981 C83.0494842,21.9331276 87.0227008,26.2993696 87.0227008,30.6470802 Z" id="green" fill="#57CF27" transform="translate(78.270212, 49.729788) rotate(45.000000) translate(-78.270212, -49.729788) "></path>
            <path d="M86.5808511,58.2324348 L86.5808511,96.7685207 C86.5808511,101.750471 82.5503417,105.787075 77.5789542,105.787075 C72.6075669,105.787075 68.5808511,101.336164 68.5808511,96.929339 L68.5808511,58.2338787 C68.5808511,53.8241866 72.6094637,49.3522738 77.5808512,49.3747114 C82.5522386,49.3971489 86.5808511,53.8241866 86.5808511,58.2324348 Z" id="blue" fill="#2359F1" transform="translate(77.580851, 77.580851) rotate(-45.000000) translate(-77.580851, -77.580851) "></path>
            <path d="M59.0040465,30.6552813 L59.0040465,69.1920622 C59.0040465,74.1741019 54.973537,78.2107792 50.0021496,78.2107792 C45.0307621,78.2107792 41.0040465,73.7597884 41.0040465,69.3528834 L41.0040465,30.656725 C41.0040465,26.2469536 45.0326591,21.7749601 50.0040465,21.7973978 C54.9754338,21.8198358 59.0040465,26.2469536 59.0040465,30.6552813 Z" id="red" fill="#FF561B" transform="translate(50.004046, 50.004046) rotate(-45.000000) translate(-50.004046, -50.004046) "></path>
            <g id="inner-round" transform="translate(64.000000, 64.000000) rotate(-45.000000) translate(-64.000000, -64.000000) translate(58.000000, 58.000000)">
                <g id="path-2-link" fill="#000000">
                    <circle id="path-2" cx="5.9977204" cy="5.9977204" r="5.85772096"></circle>
                </g>
                <g id="path-2-link" fill="#F7F7F7">
                    <circle id="path-2" cx="5.9977204" cy="5.9977204" r="5.85772096"></circle>
                </g>
            </g>
        </g>
    </g>
</svg>